<?xml version="1.0" standalone="no"?>
<!DOCTYPE svg PUBLIC "-//W3C//DTD SVG 20010904//EN"
 "http://www.w3.org/TR/2001/REC-SVG-20010904/DTD/svg10.dtd">
<svg version="1.0" xmlns="http://www.w3.org/2000/svg"
 width="128.000000pt" height="128.000000pt" viewBox="0 0 128.000000 128.000000"
 preserveAspectRatio="xMidYMid meet">

<g transform="translate(0.000000,128.000000) scale(0.100000,-0.100000)"
fill="#000000" stroke="none">
<path d="M1111 1220 c-45 -42 -62 -63 -57 -75 5 -15 8 -15 33 3 16 11 44 36
62 56 40 41 51 44 75 17 22 -25 26 -19 -128 -189 l-120 -132 -39 37 -39 38 56
50 c56 51 69 75 41 75 -9 0 -230 -194 -491 -431 l-475 -431 2 -51 c0 -30 -7
-72 -17 -100 -31 -79 5 -106 92 -68 28 13 56 18 70 15 48 -12 73 6 195 141 67
74 125 132 129 130 4 -3 10 -22 14 -43 7 -45 79 -162 100 -162 26 0 27 18 2
47 -37 45 -67 110 -73 163 l-6 49 139 156 139 155 63 -4 c264 -16 387 -336
203 -529 -79 -84 -219 -120 -321 -82 -79 29 -80 29 -80 7 0 -20 22 -32 95 -51
162 -43 350 58 411 220 11 27 17 75 18 124 0 67 -4 90 -27 140 -50 108 -132
174 -254 205 l-63 15 210 233 c116 128 210 241 210 251 0 23 -64 81 -88 81 -9
-1 -46 -27 -81 -60z m-188 -318 l28 -30 -363 -402 c-362 -401 -363 -402 -398
-397 -22 3 -54 -3 -87 -16 -29 -11 -56 -18 -59 -14 -3 3 -2 18 3 34 7 21 15
27 31 25 27 -4 27 4 3 59 -11 24 -17 49 -13 56 4 6 185 174 402 371 288 262
399 357 410 351 8 -4 28 -21 43 -37z"/>
<path d="M796 793 c-12 -12 -6 -33 9 -33 8 0 15 6 15 14 0 17 -14 28 -24 19z"/>
<path d="M602 654 c4 -21 22 -23 26 -1 2 10 -3 17 -13 17 -10 0 -15 -6 -13
-16z"/>
<path d="M567 554 c-9 -10 2 -24 19 -24 8 0 14 7 14 15 0 15 -21 21 -33 9z"/>
<path d="M436 503 c-12 -12 -6 -33 9 -33 8 0 15 6 15 14 0 17 -14 28 -24 19z"/>
<path d="M374 349 c-10 -17 13 -36 27 -22 12 12 4 33 -11 33 -5 0 -12 -5 -16
-11z"/>
<path d="M222 304 c4 -21 22 -23 26 -1 2 10 -3 17 -13 17 -10 0 -15 -6 -13
-16z"/>
<path d="M222 183 c5 -25 28 -28 28 -4 0 12 -6 21 -16 21 -9 0 -14 -7 -12 -17z"/>
<path d="M154 1033 c-3 -10 -16 -39 -30 -64 -31 -60 -31 -104 1 -151 32 -47
32 -78 -1 -133 -26 -45 -29 -85 -7 -92 7 -3 15 8 19 24 4 15 16 41 26 56 33
47 35 99 4 151 -32 55 -32 89 -1 141 28 46 33 85 10 85 -9 0 -18 -8 -21 -17z"/>
<path d="M54 743 c-3 -10 -16 -39 -30 -64 -30 -59 -30 -94 1 -144 13 -22 24
-53 24 -70 0 -16 -11 -48 -24 -70 -34 -55 -33 -101 1 -88 8 3 14 14 14 25 0
10 11 36 25 56 32 47 32 95 0 147 -30 49 -32 94 -4 128 28 37 38 97 15 97 -9
0 -19 -8 -22 -17z"/>
<path d="M820 528 c-11 -24 -20 -62 -20 -85 0 -24 -2 -43 -5 -43 -3 0 -22 11
-43 24 -20 14 -50 26 -67 28 -28 3 -30 1 -28 -27 1 -16 16 -49 33 -73 27 -38
28 -43 13 -48 -49 -15 -83 -35 -83 -49 0 -20 45 -41 103 -50 41 -6 47 -10 47
-31 0 -18 5 -24 23 -24 13 0 32 6 42 14 16 11 22 11 45 -2 33 -19 60 -10 60
20 0 20 5 23 43 24 50 1 107 28 107 49 0 14 -34 34 -83 49 -17 5 -16 9 7 39
33 43 52 95 39 108 -11 11 -66 -6 -105 -33 -14 -10 -29 -18 -32 -18 -3 0 -6
19 -6 43 0 51 -33 127 -55 127 -9 0 -24 -18 -35 -42z m53 -124 c-1 -95 6 -102
53 -53 16 17 42 38 58 46 l30 16 -18 -29 c-11 -16 -34 -42 -52 -57 -49 -41
-45 -57 14 -57 26 0 53 -4 61 -9 22 -14 -24 -24 -75 -16 -43 6 -44 5 -44 -21
0 -26 -1 -26 -18 -11 -23 21 -31 21 -54 0 -17 -15 -18 -15 -18 11 0 26 -1 27
-44 21 -51 -8 -97 2 -75 16 8 5 35 9 62 9 58 0 62 16 13 57 -18 15 -41 41 -52
57 l-18 29 30 -16 c16 -8 42 -29 58 -46 46 -48 60 -42 52 25 -8 67 9 143 27
125 8 -8 11 -43 10 -97z"/>
</g>
</svg>
